<?xml version="1.0" encoding="UTF-8"?>
<svg width="121px" height="22px" viewBox="0 0 121 22" version="1.1" xmlns="http://www.w3.org/2000/svg" xmlns:xlink="http://www.w3.org/1999/xlink">
    <!-- Generator: Sketch 54.1 (76490) - https://sketchapp.com -->
    <title>Group</title>
    <desc>Created with Sketch.</desc>
    <g id="Symbols" stroke="none" stroke-width="1" fill="none" fill-rule="evenodd">
        <g id="Header" transform="translate(-169.000000, -22.000000)" fill="#FFFFFF" fill-rule="nonzero">
            <g id="Group" transform="translate(168.000000, 22.000000)">
                <path d="M14.1,17 C13.9826661,17 13.8910003,16.9633337 13.825,16.89 C13.7589997,16.8166663 13.7333333,16.7213339 13.748,16.604 L15.552,1.996 C15.5666667,1.87866608 15.6143329,1.7833337 15.695,1.71 C15.7756671,1.6366663 15.8746661,1.6 15.992,1.6 L18.764,1.6 C18.8813339,1.6 18.969333,1.6366663 19.028,1.71 C19.086667,1.7833337 19.1086667,1.87866608 19.094,1.996 L17.312,16.604 C17.2679998,16.8680013 17.1213346,17 16.872,17 L14.1,17 Z M30.38,8.486 C30.5120007,8.98466916 30.578,9.51999714 30.578,10.092 C30.578,10.3413346 30.548667,10.7299974 30.49,11.258 C30.4019996,12.1820046 30.189335,13.0253295 29.852,13.788 C29.4413313,14.7853383 28.8070043,15.5993302 27.949,16.23 C27.0909957,16.8606698 26.2000046,17.176 25.276,17.176 C24.1906612,17.176 23.4280022,16.7873372 22.988,16.01 C22.9439998,15.951333 22.9036669,15.9293333 22.867,15.944 C22.8303332,15.9586667 22.8046667,16.0026663 22.79,16.076 L22.746,16.604 C22.7019998,16.8680013 22.5553346,17 22.306,17 L19.534,17 C19.4166661,17 19.3250003,16.9633337 19.259,16.89 C19.1929997,16.8166663 19.1673333,16.7213339 19.182,16.604 L20.986,1.996 C21.0006667,1.87866608 21.0483329,1.7833337 21.129,1.71 C21.2096671,1.6366663 21.3086661,1.6 21.426,1.6 L24.198,1.6 C24.3153339,1.6 24.403333,1.6366663 24.462,1.71 C24.520667,1.7833337 24.5426667,1.87866608 24.528,1.996 L24,6.374 C23.9853333,6.4473337 23.9963332,6.49133326 24.033,6.506 C24.0696669,6.52066674 24.1099998,6.49866696 24.154,6.44 C24.7553363,5.76532996 25.6059945,5.428 26.706,5.428 C27.6153379,5.428 28.4036633,5.71033051 29.071,6.275 C29.7383367,6.83966949 30.1746656,7.57666212 30.38,8.486 Z M26.112,13.15 C26.4053348,12.6806643 26.5959996,12.0720037 26.684,11.324 C26.7133335,11.1479991 26.728,10.9060015 26.728,10.598 C26.728,10.1579978 26.6693339,9.76200176 26.552,9.41 C26.3173322,8.8966641 25.9213361,8.64 25.364,8.64 C24.8213306,8.64 24.3740018,8.88933084 24.022,9.388 C23.6993317,9.9013359 23.4940004,10.5466628 23.406,11.324 C23.3766665,11.6466683 23.362,11.8739993 23.362,12.006 C23.362,12.4313355 23.4206661,12.8053317 23.538,13.128 C23.7726678,13.6853361 24.1613306,13.964 24.704,13.964 C25.2613361,13.964 25.7306648,13.6926694 26.112,13.15 Z M34.516,4.878 C33.9586639,4.878 33.511335,4.71300165 33.174,4.383 C32.836665,4.05299835 32.668,3.61666938 32.668,3.074 C32.668,2.38466322 32.8916644,1.81633557 33.339,1.369 C33.7863356,0.92166443 34.3546632,0.698 35.044,0.698 C35.6160029,0.698 36.0669984,0.85566509 36.397,1.171 C36.7270017,1.48633491 36.892,1.90799736 36.892,2.436 C36.892,3.15467026 36.6683356,3.74133106 36.221,4.196 C35.7736644,4.65066894 35.2053368,4.878 34.516,4.878 Z M31.656,17 C31.5386661,17 31.4470003,16.9633337 31.381,16.89 C31.3149997,16.8166663 31.2893333,16.7213339 31.304,16.604 L32.602,6.022 C32.6460002,5.75799868 32.7926654,5.626 33.042,5.626 L35.814,5.626 C35.9313339,5.626 36.019333,5.6626663 36.078,5.736 C36.136667,5.8093337 36.1586667,5.90466608 36.144,6.022 L34.846,16.604 C34.8313333,16.7213339 34.7873337,16.8166663 34.714,16.89 C34.6406663,16.9633337 34.5453339,17 34.428,17 L31.656,17 Z M37.178,17 C37.0606661,17 36.9690003,16.9633337 36.903,16.89 C36.8369997,16.8166663 36.8113333,16.7213339 36.826,16.604 L38.63,1.996 C38.6446667,1.87866608 38.6923329,1.7833337 38.773,1.71 C38.8536671,1.6366663 38.9526661,1.6 39.07,1.6 L41.842,1.6 C41.9593339,1.6 42.047333,1.6366663 42.106,1.71 C42.164667,1.7833337 42.1866667,1.87866608 42.172,1.996 L40.39,16.604 C40.3459998,16.8680013 40.1993346,17 39.95,17 L37.178,17 Z M45.714,17 C45.5379991,17 45.4280002,16.9120009 45.384,16.736 L43.272,6.176 L43.272,6.088 C43.272,5.89733238 43.3746656,5.802 43.58,5.802 L45.164,5.802 C45.2520004,5.802 45.325333,5.82766641 45.384,5.879 C45.442667,5.93033359 45.472,5.99999956 45.472,6.088 L46.836,13.964 C46.8506667,14.022667 46.8726665,14.0483334 46.902,14.041 C46.9313335,14.0336666 46.9533333,14.000667 46.968,13.942 L50.246,6.088 C50.3193337,5.89733238 50.4513324,5.802 50.642,5.802 L52.226,5.824 C52.3286672,5.824 52.3983332,5.85699967 52.435,5.923 C52.4716669,5.98900033 52.4680002,6.08066608 52.424,6.198 L47.738,16.736 C47.6646663,16.9120009 47.5326676,17 47.342,17 L45.714,17 Z M58.012,15.372 C58.5840029,15.3573333 59.0936644,15.2326678 59.541,14.998 C59.9883356,14.7633322 60.3586652,14.4260022 60.652,13.986 C60.7400004,13.8539993 60.8353328,13.788 60.938,13.788 C60.9820002,13.788 61.0406663,13.8099998 61.114,13.854 L61.906,14.404 C61.9940004,14.462667 62.038,14.5433328 62.038,14.646 C62.038,14.704667 62.0160002,14.7779996 61.972,14.866 C61.5026643,15.5846703 60.8940037,16.1493313 60.146,16.56 C59.3979963,16.9706687 58.5473381,17.176 57.594,17.176 C56.5819949,17.176 55.7606698,16.9450023 55.13,16.483 C54.4993302,16.0209977 54.0520013,15.3573377 53.788,14.492 C53.6413326,13.9639974 53.568,13.3406703 53.568,12.622 C53.568,12.2113313 53.5899998,11.7860022 53.634,11.346 C53.7073337,10.7886639 53.7843329,10.3230019 53.865,9.949 C53.9456671,9.57499813 54.0519993,9.22666828 54.184,8.904 C54.5653352,7.89199494 55.1739958,7.0926696 56.01,6.506 C56.8460042,5.9193304 57.8139945,5.626 58.914,5.626 C60.3073403,5.626 61.3156636,6.01832941 61.939,6.803 C62.5623365,7.58767059 62.874,8.72065926 62.874,10.202 C62.874,10.4806681 62.844667,11.0306626 62.786,11.852 C62.7419998,12.0720011 62.6173344,12.182 62.412,12.182 L55.68,12.182 C55.6066663,12.182 55.57,12.2186663 55.57,12.292 C55.5406665,12.6733352 55.526,12.9226661 55.526,13.04 C55.526,13.1866674 55.5406665,13.3333326 55.57,13.48 C55.6433337,14.0666696 55.8963312,14.528665 56.329,14.866 C56.7616688,15.203335 57.3226632,15.372 58.012,15.372 Z M58.694,7.452 C58.0779969,7.452 57.5536688,7.60599846 57.121,7.914 C56.6883312,8.22200154 56.3620011,8.64733062 56.142,9.19 C56.0099993,9.51266828 55.9000004,9.92333084 55.812,10.422 C55.7826665,10.4953337 55.8119996,10.532 55.9,10.532 L60.74,10.532 C60.8133337,10.532 60.85,10.4953337 60.85,10.422 C60.8793335,10.0699982 60.894,9.83533392 60.894,9.718 C60.894,9.04332996 60.6996686,8.49700209 60.311,8.079 C59.9223314,7.66099791 59.3833368,7.452 58.694,7.452 Z M65.074,17 C64.9713328,17 64.8943336,16.970667 64.843,16.912 C64.7916664,16.853333 64.7733333,16.7726672 64.788,16.67 L66.614,1.93 C66.6286667,1.82733282 66.665333,1.74666696 66.724,1.688 C66.782667,1.62933304 66.8633328,1.6 66.966,1.6 L68.374,1.6 C68.4766672,1.6 68.5536664,1.62933304 68.605,1.688 C68.6563336,1.74666696 68.6746667,1.82733282 68.66,1.93 L66.834,16.67 C66.8193333,16.7726672 66.782667,16.853333 66.724,16.912 C66.665333,16.970667 66.5846672,17 66.482,17 L65.074,17 Z M77.834,6.132 C77.8486667,6.02933282 77.885333,5.94866696 77.944,5.89 C78.002667,5.83133304 78.0833328,5.802 78.186,5.802 L79.594,5.802 C79.6966672,5.802 79.7736664,5.83133304 79.825,5.89 C79.8763336,5.94866696 79.8946667,6.02933282 79.88,6.132 L78.604,16.428 C78.3839989,18.1880088 77.738672,19.4529962 76.668,20.223 C75.597328,20.9930039 74.2553414,21.378 72.642,21.378 C72.4366656,21.378 72.1140022,21.3633335 71.674,21.334 C71.4686656,21.334 71.3806665,21.2166678 71.41,20.982 L71.63,19.684 C71.6446667,19.5813328 71.6849997,19.500667 71.751,19.442 C71.8170003,19.383333 71.9013328,19.3613333 72.004,19.376 C72.1946676,19.3906667 72.4733315,19.398 72.84,19.398 C74.0280059,19.398 74.9116638,19.1670023 75.491,18.705 C76.0703362,18.2429977 76.4333326,17.4620055 76.58,16.362 L76.624,15.988 C76.624,15.9439998 76.6093335,15.9183334 76.58,15.911 C76.5506665,15.9036666 76.5213335,15.9146665 76.492,15.944 C75.7879965,16.6480035 74.8786722,17 73.764,17 C72.8399954,17 72.0333368,16.7506692 71.344,16.252 C70.6546632,15.7533308 70.2293341,15.0200048 70.068,14.052 C70.0239998,13.7439985 70.002,13.4140018 70.002,13.062 C70.002,12.5926643 70.0386663,12.0280033 70.112,11.368 C70.2586674,10.1946608 70.4859985,9.25600352 70.794,8.552 C71.1753352,7.6719956 71.7436629,6.96433601 72.499,6.429 C73.2543371,5.89366399 74.1013286,5.626 75.04,5.626 C76.1840057,5.626 77.0493304,5.98532974 77.636,6.704 C77.6506667,6.74800022 77.6726665,6.76266674 77.702,6.748 C77.7313335,6.73333326 77.7533333,6.70400022 77.768,6.66 L77.834,6.132 Z M76.8,13.414 C76.8733337,13.1939989 76.9356664,12.9593346 76.987,12.71 C77.0383336,12.4606654 77.1079996,12.0060033 77.196,11.346 C77.2840004,10.553996 77.328,10.0480011 77.328,9.828 C77.328,9.71066608 77.3133335,9.53466784 77.284,9.3 C77.2399998,8.75733062 77.0420018,8.31366839 76.69,7.969 C76.3379982,7.62433161 75.8613363,7.452 75.26,7.452 C74.6733304,7.452 74.1563356,7.62433161 73.709,7.969 C73.2616644,8.31366839 72.9206678,8.75733062 72.686,9.3 C72.4513322,9.78400242 72.2900004,10.4659956 72.202,11.346 C72.1286663,12.0060033 72.092,12.4753319 72.092,12.754 C72.092,13.0326681 72.1139998,13.2526659 72.158,13.414 C72.2313337,13.9566694 72.4586648,14.4003316 72.84,14.745 C73.2213352,15.0896684 73.7053304,15.262 74.292,15.262 C74.9080031,15.262 75.4359978,15.0896684 75.876,14.745 C76.3160022,14.4003316 76.6239991,13.9566694 76.8,13.414 Z M86.172,15.372 C86.7440029,15.3573333 87.2536644,15.2326678 87.701,14.998 C88.1483356,14.7633322 88.5186652,14.4260022 88.812,13.986 C88.9000004,13.8539993 88.9953328,13.788 89.098,13.788 C89.1420002,13.788 89.2006663,13.8099998 89.274,13.854 L90.066,14.404 C90.1540004,14.462667 90.198,14.5433328 90.198,14.646 C90.198,14.704667 90.1760002,14.7779996 90.132,14.866 C89.6626643,15.5846703 89.0540037,16.1493313 88.306,16.56 C87.5579963,16.9706687 86.7073381,17.176 85.754,17.176 C84.7419949,17.176 83.9206698,16.9450023 83.29,16.483 C82.6593302,16.0209977 82.2120013,15.3573377 81.948,14.492 C81.8013326,13.9639974 81.728,13.3406703 81.728,12.622 C81.728,12.2113313 81.7499998,11.7860022 81.794,11.346 C81.8673337,10.7886639 81.9443329,10.3230019 82.025,9.949 C82.1056671,9.57499813 82.2119993,9.22666828 82.344,8.904 C82.7253352,7.89199494 83.3339958,7.0926696 84.17,6.506 C85.0060042,5.9193304 85.9739945,5.626 87.074,5.626 C88.4673403,5.626 89.4756636,6.01832941 90.099,6.803 C90.7223365,7.58767059 91.034,8.72065926 91.034,10.202 C91.034,10.4806681 91.004667,11.0306626 90.946,11.852 C90.9019998,12.0720011 90.7773344,12.182 90.572,12.182 L83.84,12.182 C83.7666663,12.182 83.73,12.2186663 83.73,12.292 C83.7006665,12.6733352 83.686,12.9226661 83.686,13.04 C83.686,13.1866674 83.7006665,13.3333326 83.73,13.48 C83.8033337,14.0666696 84.0563312,14.528665 84.489,14.866 C84.9216688,15.203335 85.4826632,15.372 86.172,15.372 Z M86.854,7.452 C86.2379969,7.452 85.7136688,7.60599846 85.281,7.914 C84.8483312,8.22200154 84.5220011,8.64733062 84.302,9.19 C84.1699993,9.51266828 84.0600004,9.92333084 83.972,10.422 C83.9426665,10.4953337 83.9719996,10.532 84.06,10.532 L88.9,10.532 C88.9733337,10.532 89.01,10.4953337 89.01,10.422 C89.0393335,10.0699982 89.054,9.83533392 89.054,9.718 C89.054,9.04332996 88.8596686,8.49700209 88.471,8.079 C88.0823314,7.66099791 87.5433368,7.452 86.854,7.452 Z M99.042,5.692 C99.4673355,5.692 99.8413317,5.77266586 100.164,5.934 C100.266667,5.99266696 100.318,6.07333282 100.318,6.176 C100.318,6.20533348 100.303333,6.26399956 100.274,6.352 L99.812,7.782 C99.7826665,7.9286674 99.7020007,8.002 99.57,8.002 C99.4966663,8.002 99.4380002,7.99466674 99.394,7.98 C99.2033324,7.9066663 98.9686681,7.87 98.69,7.87 C98.5433326,7.87 98.4333337,7.87733326 98.36,7.892 C97.6999967,7.92133348 97.1243358,8.15966443 96.633,8.607 C96.1416642,9.05433557 95.8520004,9.63732974 95.764,10.356 L94.972,16.67 C94.9573333,16.7726672 94.920667,16.853333 94.862,16.912 C94.803333,16.970667 94.7226672,17 94.62,17 L93.212,17 C93.1093328,17 93.0323336,16.970667 92.981,16.912 C92.9296664,16.853333 92.9113333,16.7726672 92.926,16.67 L94.224,6.132 C94.2386667,6.02933282 94.2789997,5.94866696 94.345,5.89 C94.4110003,5.83133304 94.4953328,5.802 94.598,5.802 L96.006,5.802 C96.0940004,5.802 96.1636664,5.83133304 96.215,5.89 C96.2663336,5.94866696 96.2846667,6.02933282 96.27,6.132 L96.16,7.144 C96.1453333,7.20266696 96.1526665,7.23566663 96.182,7.243 C96.2113335,7.25033337 96.2406665,7.23200022 96.27,7.188 C97.003337,6.19066168 97.9273278,5.692 99.042,5.692 Z M105.576,15.372 C106.148003,15.3573333 106.657664,15.2326678 107.105,14.998 C107.552336,14.7633322 107.922665,14.4260022 108.216,13.986 C108.304,13.8539993 108.399333,13.788 108.502,13.788 C108.546,13.788 108.604666,13.8099998 108.678,13.854 L109.47,14.404 C109.558,14.462667 109.602,14.5433328 109.602,14.646 C109.602,14.704667 109.58,14.7779996 109.536,14.866 C109.066664,15.5846703 108.458004,16.1493313 107.71,16.56 C106.961996,16.9706687 106.111338,17.176 105.158,17.176 C104.145995,17.176 103.32467,16.9450023 102.694,16.483 C102.06333,16.0209977 101.616001,15.3573377 101.352,14.492 C101.205333,13.9639974 101.132,13.3406703 101.132,12.622 C101.132,12.2113313 101.154,11.7860022 101.198,11.346 C101.271334,10.7886639 101.348333,10.3230019 101.429,9.949 C101.509667,9.57499813 101.615999,9.22666828 101.748,8.904 C102.129335,7.89199494 102.737996,7.0926696 103.574,6.506 C104.410004,5.9193304 105.377995,5.626 106.478,5.626 C107.87134,5.626 108.879664,6.01832941 109.503,6.803 C110.126336,7.58767059 110.438,8.72065926 110.438,10.202 C110.438,10.4806681 110.408667,11.0306626 110.35,11.852 C110.306,12.0720011 110.181334,12.182 109.976,12.182 L103.244,12.182 C103.170666,12.182 103.134,12.2186663 103.134,12.292 C103.104667,12.6733352 103.09,12.9226661 103.09,13.04 C103.09,13.1866674 103.104667,13.3333326 103.134,13.48 C103.207334,14.0666696 103.460331,14.528665 103.893,14.866 C104.325669,15.203335 104.886663,15.372 105.576,15.372 Z M106.258,7.452 C105.641997,7.452 105.117669,7.60599846 104.685,7.914 C104.252331,8.22200154 103.926001,8.64733062 103.706,9.19 C103.573999,9.51266828 103.464,9.92333084 103.376,10.422 C103.346667,10.4953337 103.376,10.532 103.464,10.532 L108.304,10.532 C108.377334,10.532 108.414,10.4953337 108.414,10.422 C108.443333,10.0699982 108.458,9.83533392 108.458,9.718 C108.458,9.04332996 108.263669,8.49700209 107.875,8.079 C107.486331,7.66099791 106.947337,7.452 106.258,7.452 Z M118.534,5.648 C119.590005,5.648 120.414997,5.93766377 121.009,6.517 C121.603003,7.09633623 121.9,7.88466168 121.9,8.882 C121.9,9.01400066 121.885333,9.2266652 121.856,9.52 L120.976,16.67 C120.961333,16.7726672 120.924667,16.853333 120.866,16.912 C120.807333,16.970667 120.726667,17 120.624,17 L119.216,17 C119.113333,17 119.036334,16.970667 118.985,16.912 C118.933666,16.853333 118.915333,16.7726672 118.93,16.67 L119.766,9.938 C119.780667,9.84999956 119.788,9.71800088 119.788,9.542 C119.788,8.92599692 119.612002,8.42733524 119.26,8.046 C118.907998,7.66466476 118.424003,7.474 117.808,7.474 C117.17733,7.474 116.634669,7.66099813 116.18,8.035 C115.725331,8.40900187 115.417334,8.91133018 115.256,9.542 L114.376,16.67 C114.361333,16.7726672 114.324667,16.853333 114.266,16.912 C114.207333,16.970667 114.126667,17 114.024,17 L112.616,17 C112.513333,17 112.436334,16.970667 112.385,16.912 C112.333666,16.853333 112.315333,16.7726672 112.33,16.67 L113.628,6.132 C113.642667,6.02933282 113.683,5.94866696 113.749,5.89 C113.815,5.83133304 113.899333,5.802 114.002,5.802 L115.41,5.802 C115.498,5.802 115.567666,5.83133304 115.619,5.89 C115.670334,5.94866696 115.688667,6.02933282 115.674,6.132 L115.608,6.748 C115.593333,6.79200022 115.600667,6.82133326 115.63,6.836 C115.659333,6.85066674 115.688667,6.84333348 115.718,6.814 C116.39267,6.03666278 117.331327,5.648 118.534,5.648 Z" id="lbilvelgeren"></path>
                <path d="M13.622,4.328 C13.6073333,4.44533392 13.5596671,4.5406663 13.479,4.614 C13.3983329,4.6873337 13.2993339,4.724 13.182,4.724 L6.648,4.724 C6.61866652,4.724 6.58566685,4.73866652 6.549,4.768 C6.51233315,4.79733348 6.494,4.83399978 6.494,4.878 L6.164,7.496 C6.164,7.59866718 6.20799956,7.65 6.296,7.65 L10.41,7.65 C10.5273339,7.65 10.6189997,7.6866663 10.685,7.76 C10.7510003,7.8333337 10.7766667,7.92866608 10.762,8.046 L10.476,10.356 C10.4319998,10.6200013 10.2853346,10.752 10.036,10.752 L5.922,10.752 C5.83399956,10.752 5.77533348,10.8033328 5.746,10.906 L5.394,13.722 C5.394,13.8246672 5.43799956,13.876 5.526,13.876 L12.06,13.876 C12.1773339,13.876 12.265333,13.9126663 12.324,13.986 C12.382667,14.0593337 12.4046667,14.1546661 12.39,14.272 L12.104,16.604 C12.0893333,16.7213339 12.0453337,16.8166663 11.972,16.89 C11.8986663,16.9633337 11.8033339,17 11.686,17 L1.852,17 C1.73466608,17 1.64300033,16.9633337 1.577,16.89 C1.51099967,16.8166663 1.48533326,16.7213339 1.5,16.604 L3.304,1.996 C3.31866674,1.87866608 3.36633293,1.7833337 3.447,1.71 C3.52766707,1.6366663 3.62666608,1.6 3.744,1.6 L13.578,1.6 C13.6953339,1.6 13.783333,1.6366663 13.842,1.71 C13.900667,1.7833337 13.9226667,1.87866608 13.908,1.996 L13.622,4.328 Z" id="E"></path>
            </g>
        </g>
    </g>
</svg>